<svg viewBox="0 0 200 150" xmlns="http://www.w3.org/2000/svg" role="img" aria-label="Butter melting and foaming in the pan over a low flame">
  <defs>
    <linearGradient id="pan" x1="0" y1="0" x2="0" y2="1">
      <stop offset="0" stop-color="#5c6066"/><stop offset="1" stop-color="#3c4046"/>
    </linearGradient>
  </defs>
  <ellipse cx="100" cy="126" rx="80" ry="8" fill="#000" opacity="0.25"/>
  <path d="M30 64 L170 64 L160 112 Q100 124 40 112 Z" fill="url(#pan)"/>
  <rect x="26" y="60" width="148" height="8" rx="4" fill="#6f747b"/>
  <path d="M172 64 L198 58" stroke="#a97142" stroke-width="10" stroke-linecap="round"/>
  <ellipse cx="100" cy="96" rx="44" ry="12" fill="#ffd75e"/>
  <ellipse cx="100" cy="94" rx="44" ry="11" fill="#ffe97a"/>
  <g transform="translate(88,74)">
    <rect x="0" y="0" width="24" height="16" rx="3" fill="#f1c21b"/>
    <rect x="0" y="0" width="24" height="5" rx="3" fill="#ffe97a"/>
  </g>
  <circle cx="72" cy="94" r="2.5" fill="#ffffff" opacity="0.85"/>
  <circle cx="126" cy="96" r="2" fill="#ffffff" opacity="0.85"/>
  <circle cx="112" cy="90" r="2" fill="#ffffff" opacity="0.85"/>
  <circle cx="84" cy="99" r="2" fill="#ffffff" opacity="0.85"/>
  <path d="M100 120 q-4 7 0 12" stroke="#ff832b" stroke-width="4" fill="none" stroke-linecap="round"/>
  <path d="M82 122 q-3 5 0 9 M118 122 q-3 5 0 9" stroke="#ffb000" stroke-width="3" fill="none" stroke-linecap="round"/>
  <rect x="146" y="20" width="40" height="22" rx="4" fill="#1d2b1e"/>
  <text x="166" y="36" font-family="sans-serif" font-size="12" font-weight="700" fill="#42be65" text-anchor="middle">LOW</text>
</svg>
