<svg viewBox="0 0 200 150" xmlns="http://www.w3.org/2000/svg" role="img" aria-label="Thick slice of bread toasting in the buttered pan, pressed with a spatula, one corner lifted to check the color">
  <defs>
    <linearGradient id="pan" x1="0" y1="0" x2="0" y2="1">
      <stop offset="0" stop-color="#5c6066"/><stop offset="1" stop-color="#3c4046"/>
    </linearGradient>
  </defs>
  <ellipse cx="100" cy="126" rx="80" ry="8" fill="#000" opacity="0.25"/>
  <path d="M30 64 L170 64 L160 112 Q100 124 40 112 Z" fill="url(#pan)"/>
  <rect x="26" y="60" width="148" height="8" rx="4" fill="#6f747b"/>
  <path d="M172 64 L198 58" stroke="#a97142" stroke-width="10" stroke-linecap="round"/>
  <ellipse cx="100" cy="98" rx="48" ry="11" fill="#ffd75e" opacity="0.7"/>
  <g transform="translate(64,66) rotate(-4)">
    <rect x="0" y="0" width="62" height="30" rx="8" fill="#f3dfae"/>
    <rect x="0" y="0" width="62" height="30" rx="8" fill="none" stroke="#c9a15f" stroke-width="4"/>
    <path d="M6 24 L14 30" stroke="#b07c3f" stroke-width="4" stroke-linecap="round"/>
  </g>
  <path d="M118 96 Q126 102 136 100" stroke="#b07c3f" stroke-width="4" fill="none" stroke-linecap="round"/>
  <g transform="translate(146,16) rotate(35)">
    <rect x="-4" y="0" width="8" height="34" rx="4" fill="#a97142"/>
    <rect x="-13" y="32" width="26" height="22" rx="4" fill="#8d939b"/>
    <rect x="-13" y="32" width="26" height="7" rx="3" fill="#b8bdc4"/>
  </g>
  <path d="M60 52 q-4 -8 0 -15 M84 48 q-4 -8 0 -15" stroke="#aab6c0" stroke-width="3.5" fill="none" stroke-linecap="round" opacity="0.8"/>
  <path d="M100 120 q-4 7 0 12" stroke="#ff832b" stroke-width="4" fill="none" stroke-linecap="round"/>
  <path d="M82 122 q-3 5 0 9 M118 122 q-3 5 0 9" stroke="#ffb000" stroke-width="3" fill="none" stroke-linecap="round"/>
  <rect x="14" y="20" width="38" height="22" rx="4" fill="#1d2b1e"/>
  <text x="33" y="36" font-family="sans-serif" font-size="13" font-weight="700" fill="#42be65" text-anchor="middle">2:30</text>
</svg>
