<svg viewBox="0 0 200 150" xmlns="http://www.w3.org/2000/svg" role="img" aria-label="Eggs beaten smooth in a bowl with chopsticks, salt beside it">
  <defs>
    <linearGradient id="bowl" x1="0" y1="0" x2="0" y2="1">
      <stop offset="0" stop-color="#f4f6f8"/><stop offset="1" stop-color="#c2cad2"/>
    </linearGradient>
  </defs>
  <ellipse cx="94" cy="128" rx="66" ry="8" fill="#000" opacity="0.25"/>
  <path d="M36 72 L152 72 L140 118 Q94 128 48 118 Z" fill="url(#bowl)"/>
  <path d="M36 72 L152 72 L150 80 L38 80 Z" fill="#ffffff"/>
  <path d="M48 86 Q94 98 140 86 L133 110 Q94 120 55 110 Z" fill="#f1c21b"/>
  <path d="M58 94 q13 -6 25 0 M100 96 q13 -6 25 0" stroke="#ffd75e" stroke-width="4" fill="none" stroke-linecap="round"/>
  <circle cx="92" cy="106" r="2.4" fill="#ffe97a"/>
  <circle cx="112" cy="102" r="2" fill="#ffe97a"/>
  <line x1="118" y1="16" x2="140" y2="92" stroke="#a97142" stroke-width="5" stroke-linecap="round"/>
  <line x1="128" y1="16" x2="144" y2="92" stroke="#c08a54" stroke-width="5" stroke-linecap="round"/>
  <g transform="translate(30,48)">
    <rect x="-11" y="-14" width="22" height="30" rx="6" fill="#f0ece4"/>
    <rect x="-8" y="-20" width="16" height="8" rx="3" fill="#c8ccd2"/>
    <circle cx="-3" cy="-16" r="1.2" fill="#8f959c"/>
    <circle cx="3" cy="-16" r="1.2" fill="#8f959c"/>
  </g>
  <circle cx="52" cy="60" r="2" fill="#f0ece4"/>
  <circle cx="62" cy="52" r="1.8" fill="#f0ece4"/>
  <g transform="translate(168,86)">
    <path d="M-14 -10 q14 -6 14 10 q0 12 -14 12 q-14 0 -14 -12 q0 -16 14 -10 Z" fill="#fdf6e6"/>
    <path d="M-9 -4 q9 -4 9 5" stroke="#ffffff" stroke-width="3" fill="none" stroke-linecap="round"/>
  </g>
</svg>
