<svg viewBox="0 0 200 150" xmlns="http://www.w3.org/2000/svg" role="img" aria-label="Slice of white bread soaking in the egg custard, being turned over">
  <defs>
    <radialGradient id="bowl2" cx="0.5" cy="0.3" r="0.8">
      <stop offset="0" stop-color="#ffffff"/><stop offset="1" stop-color="#f0ece4"/>
    </radialGradient>
  </defs>
  <ellipse cx="100" cy="128" rx="74" ry="8" fill="#000" opacity="0.25"/>
  <path d="M26 76 L174 76 A74 46 0 0 1 26 76 Z" fill="url(#bowl2)"/>
  <ellipse cx="100" cy="76" rx="74" ry="21" fill="#e6e0d4"/>
  <ellipse cx="100" cy="78" rx="64" ry="17" fill="#f1c21b"/>
  <g transform="translate(56,54) rotate(-5)">
    <rect x="0" y="0" width="82" height="30" rx="8" fill="#f3dfae"/>
    <rect x="0" y="0" width="82" height="30" rx="8" fill="none" stroke="#e8c66a" stroke-width="4"/>
    <path d="M12 22 q10 6 20 0 M46 24 q10 6 20 0" stroke="#e8c66a" stroke-width="3" fill="none" stroke-linecap="round"/>
  </g>
  <path d="M148 60 q8 6 0 14" stroke="#ffd75e" stroke-width="4" fill="none" stroke-linecap="round"/>
  <path d="M96 34 A26 26 0 1 1 72 44" stroke="#aab6c0" stroke-width="4" fill="none" stroke-linecap="round"/>
  <path d="M66 36 L72 46 L61 48 Z" fill="#aab6c0"/>
  <rect x="146" y="14" width="38" height="22" rx="4" fill="#1d2b1e"/>
  <text x="165" y="30" font-family="sans-serif" font-size="13" font-weight="700" fill="#42be65" text-anchor="middle">1:00</text>
</svg>
