<svg viewBox="0 0 200 150" xmlns="http://www.w3.org/2000/svg" role="img" aria-label="A mound of garlic fried rice on a plate, topped with crisp garlic chips and sliced spring onion">
  <defs>
    <radialGradient id="plate" cx="0.5" cy="0.4" r="0.7">
      <stop offset="0" stop-color="#ffffff"/><stop offset="1" stop-color="#f0ece4"/>
    </radialGradient>
    <linearGradient id="mound" x1="0" y1="0" x2="0" y2="1">
      <stop offset="0" stop-color="#ffffff"/><stop offset="1" stop-color="#e6e0d4"/>
    </linearGradient>
  </defs>
  <ellipse cx="100" cy="126" rx="78" ry="8" fill="#000" opacity="0.25"/>
  <ellipse cx="100" cy="106" rx="76" ry="24" fill="url(#plate)"/>
  <ellipse cx="100" cy="104" rx="60" ry="18" fill="#e6e0d4"/>
  <path d="M52 104 Q56 62 100 58 Q144 62 148 104 Q100 116 52 104 Z" fill="url(#mound)"/>
  <g fill="#ffffff">
    <ellipse cx="76" cy="82" rx="2.8" ry="4"/><ellipse cx="92" cy="76" rx="2.8" ry="4"/><ellipse cx="110" cy="78" rx="2.8" ry="4"/>
    <ellipse cx="126" cy="86" rx="2.8" ry="4"/><ellipse cx="68" cy="94" rx="2.8" ry="4"/><ellipse cx="132" cy="96" rx="2.8" ry="4"/>
    <ellipse cx="100" cy="94" rx="2.8" ry="4"/>
  </g>
  <g fill="#e8c66a" stroke="#c99b3f" stroke-width="1.4">
    <ellipse cx="84" cy="66" rx="9" ry="4"/>
    <ellipse cx="106" cy="62" rx="9" ry="4"/>
    <ellipse cx="120" cy="72" rx="9" ry="4"/>
    <ellipse cx="94" cy="74" rx="9" ry="4"/>
  </g>
  <g fill="#dbe6cd">
    <circle cx="72" cy="72" r="3.2"/><circle cx="130" cy="80" r="3.2"/><circle cx="108" cy="88" r="3.2"/>
  </g>
  <path d="M84 44 q-5 -9 0 -18 M112 40 q-5 -9 0 -18" stroke="#aab6c0" stroke-width="3.5" fill="none" stroke-linecap="round" opacity="0.8"/>
  <g transform="translate(176,88)">
    <rect x="-4" y="-26" width="8" height="34" rx="4" fill="#a97142"/>
    <path d="M-4 4 L4 4 L3 22 L-3 22 Z" fill="#cfd6dd"/>
  </g>
</svg>
