<svg viewBox="0 0 200 150" xmlns="http://www.w3.org/2000/svg" role="img" aria-label="Thin garlic slices turning pale gold in a shallow pool of oil over a low flame">
  <defs>
    <linearGradient id="pan" x1="0" y1="0" x2="0" y2="1">
      <stop offset="0" stop-color="#5c6066"/><stop offset="1" stop-color="#3c4046"/>
    </linearGradient>
  </defs>
  <ellipse cx="100" cy="126" rx="80" ry="8" fill="#000" opacity="0.25"/>
  <path d="M30 62 L170 62 L160 110 Q100 122 40 110 Z" fill="url(#pan)"/>
  <rect x="26" y="58" width="148" height="8" rx="4" fill="#6f747b"/>
  <path d="M172 62 L198 56" stroke="#a97142" stroke-width="10" stroke-linecap="round"/>
  <ellipse cx="100" cy="94" rx="48" ry="13" fill="#ffd75e" opacity="0.55"/>
  <g fill="#f3dfae" stroke="#e8c66a" stroke-width="1.5">
    <ellipse cx="72" cy="86" rx="11" ry="4.5"/>
    <ellipse cx="100" cy="92" rx="11" ry="4.5"/>
    <ellipse cx="128" cy="86" rx="11" ry="4.5"/>
    <ellipse cx="84" cy="100" rx="11" ry="4.5"/>
    <ellipse cx="114" cy="100" rx="11" ry="4.5"/>
  </g>
  <circle cx="62" cy="96" r="2.2" fill="#ffffff" opacity="0.8"/>
  <circle cx="140" cy="96" r="1.8" fill="#ffffff" opacity="0.8"/>
  <circle cx="100" cy="80" r="1.8" fill="#ffffff" opacity="0.8"/>
  <path d="M100 122 q-4 7 0 12" stroke="#ff832b" stroke-width="4" fill="none" stroke-linecap="round"/>
  <path d="M82 124 q-3 5 0 9 M118 124 q-3 5 0 9" stroke="#ffb000" stroke-width="3" fill="none" stroke-linecap="round"/>
  <rect x="14" y="18" width="40" height="22" rx="4" fill="#1d2b1e"/>
  <text x="34" y="34" font-family="sans-serif" font-size="12" font-weight="700" fill="#42be65" text-anchor="middle">LOW</text>
  <rect x="146" y="18" width="40" height="22" rx="4" fill="#1d2b1e"/>
  <text x="166" y="34" font-family="sans-serif" font-size="13" font-weight="700" fill="#42be65" text-anchor="middle">4:00</text>
</svg>
