<svg viewBox="0 0 200 150" xmlns="http://www.w3.org/2000/svg" role="img" aria-label="The sandwich flipped in the pan with melted cheese bubbling out of the sides">
  <defs>
    <linearGradient id="pan" x1="0" y1="0" x2="0" y2="1">
      <stop offset="0" stop-color="#5c6066"/><stop offset="1" stop-color="#3c4046"/>
    </linearGradient>
  </defs>
  <ellipse cx="100" cy="126" rx="80" ry="8" fill="#000" opacity="0.25"/>
  <path d="M30 64 L170 64 L160 112 Q100 124 40 112 Z" fill="url(#pan)"/>
  <rect x="26" y="60" width="148" height="8" rx="4" fill="#6f747b"/>
  <path d="M172 64 L198 58" stroke="#a97142" stroke-width="10" stroke-linecap="round"/>
  <g transform="translate(60,70)">
    <rect x="0" y="0" width="82" height="30" rx="8" fill="#c9832f"/>
    <rect x="5" y="3" width="72" height="20" rx="6" fill="#e0a24a"/>
    <path d="M14 9 q10 5 20 0 t20 0 t16 0" stroke="#b06f24" stroke-width="4" fill="none" stroke-linecap="round" opacity="0.7"/>
    <path d="M-6 22 q44 12 94 0 q-6 12 -14 12 q-34 6 -66 0 q-10 -2 -14 -12 Z" fill="#ffd75e"/>
    <path d="M-8 30 q6 8 12 4 M96 30 q-6 8 -12 4" stroke="#ffc14d" stroke-width="5" fill="none" stroke-linecap="round"/>
  </g>
  <g transform="translate(150,40) rotate(24)">
    <rect x="-4" y="0" width="8" height="16" rx="4" fill="#8d939b"/>
    <rect x="-15" y="16" width="30" height="30" rx="6" fill="#d0d4d9"/>
    <path d="M-9 22 v18 M0 22 v18 M9 22 v18" stroke="#b3b8be" stroke-width="3" stroke-linecap="round"/>
  </g>
  <path d="M100 120 q-4 7 0 12" stroke="#ff832b" stroke-width="4" fill="none" stroke-linecap="round"/>
  <path d="M82 122 q-3 5 0 9 M118 122 q-3 5 0 9" stroke="#ffb000" stroke-width="3" fill="none" stroke-linecap="round"/>
  <path d="M62 50 q-5 -9 0 -18 M100 44 q-5 -9 0 -18" stroke="#aab6c0" stroke-width="3.5" fill="none" stroke-linecap="round" opacity="0.8"/>
</svg>
