<svg viewBox="0 0 200 150" xmlns="http://www.w3.org/2000/svg" role="img" aria-label="A pack of rice heating in a microwave with steam escaping">
  <defs>
    <linearGradient id="mwfr" x1="0" y1="0" x2="0" y2="1">
      <stop offset="0" stop-color="#8d939b"/><stop offset="1" stop-color="#5f656d"/>
    </linearGradient>
  </defs>
  <ellipse cx="100" cy="130" rx="84" ry="8" fill="#000" opacity="0.25"/>
  <rect x="14" y="26" width="172" height="98" rx="10" fill="url(#mwfr)"/>
  <rect x="26" y="38" width="102" height="74" rx="6" fill="#2b2e33"/>
  <rect x="30" y="42" width="94" height="66" rx="4" fill="#3a3220"/>
  <rect x="54" y="72" width="46" height="26" rx="4" fill="#f0ece4"/>
  <rect x="54" y="72" width="46" height="9" rx="4" fill="#ffffff"/>
  <path d="M62 68 q-4 -6 0 -12 M77 64 q-4 -6 0 -12 M92 68 q-4 -6 0 -12" stroke="#ffd75e" stroke-width="3.5" fill="none" stroke-linecap="round"/>
  <rect x="140" y="40" width="36" height="20" rx="4" fill="#1d2b1e"/>
  <text x="158" y="55" font-family="sans-serif" font-size="13" font-weight="700" fill="#42be65" text-anchor="middle">2:00</text>
  <circle cx="158" cy="88" r="14" fill="#4c5056"/>
  <circle cx="158" cy="88" r="14" fill="none" stroke="#33b1ff" stroke-width="3" stroke-dasharray="44 44" stroke-linecap="round" transform="rotate(-90 158 88)"/>
  <circle cx="158" cy="112" r="5" fill="#33383e"/>
</svg>
