<svg viewBox="0 0 200 150" xmlns="http://www.w3.org/2000/svg" role="img" aria-label="Plated kimchi fried rice topped with a sunny-side-up egg and scallions">
  <defs>
    <radialGradient id="plate" cx="0.5" cy="0.4" r="0.7">
      <stop offset="0" stop-color="#f4f6f8"/><stop offset="1" stop-color="#c9d1d9"/>
    </radialGradient>
  </defs>
  <ellipse cx="100" cy="132" rx="86" ry="9" fill="#000" opacity="0.25"/>
  <ellipse cx="100" cy="92" rx="86" ry="42" fill="url(#plate)"/>
  <ellipse cx="100" cy="90" rx="72" ry="33" fill="#e4e9ee"/>
  <path d="M46 96 Q52 62 100 60 Q148 62 154 96 Q100 110 46 96 Z" fill="#ef8a8a"/>
  <g fill="#fdeeea">
    <ellipse cx="66" cy="86" rx="2.6" ry="3.8"/><ellipse cx="86" cy="92" rx="2.6" ry="3.8"/><ellipse cx="134" cy="86" rx="2.6" ry="3.8"/>
  </g>
  <path d="M58 80 q6 -4 11 0 M128 92 q6 -4 11 0" stroke="#e33b3b" stroke-width="3.5" fill="none" stroke-linecap="round"/>
  <path d="M72 62 Q78 44 100 42 Q126 42 130 60 Q132 72 118 74 Q94 78 78 72 Q70 68 72 62 Z" fill="#ffffff"/>
  <circle cx="102" cy="58" r="11" fill="#ffb000"/>
  <circle cx="99" cy="55" r="4" fill="#ffd75e"/>
  <line x1="82" y1="48" x2="90" y2="52" stroke="#7a9e4e" stroke-width="0" />
  <g stroke="#7a9e4e" stroke-width="3" stroke-linecap="round">
    <line x1="124" y1="48" x2="132" y2="44"/><line x1="70" y1="52" x2="62" y2="48"/>
  </g>
  <circle cx="88" cy="68" r="2" fill="#33383e"/><circle cx="116" cy="70" r="2" fill="#33383e"/>
  <path d="M64 32 q-4 -7 0 -13 M140 34 q-4 -7 0 -13" stroke="#aab6c0" stroke-width="3.5" fill="none" stroke-linecap="round" opacity="0.85"/>
</svg>
