<svg viewBox="0 0 200 150" xmlns="http://www.w3.org/2000/svg" role="img" aria-label="Large soft egg curds pushed with a spatula and lifted out while still wet">
  <defs>
    <linearGradient id="pan" x1="0" y1="0" x2="0" y2="1">
      <stop offset="0" stop-color="#5c6066"/><stop offset="1" stop-color="#3c4046"/>
    </linearGradient>
  </defs>
  <ellipse cx="100" cy="126" rx="80" ry="8" fill="#000" opacity="0.25"/>
  <path d="M30 64 L170 64 L160 112 Q100 124 40 112 Z" fill="url(#pan)"/>
  <rect x="26" y="60" width="148" height="8" rx="4" fill="#6f747b"/>
  <path d="M172 64 L198 58" stroke="#a97142" stroke-width="10" stroke-linecap="round"/>
  <g>
    <path d="M50 78 q18 -12 34 -2 q4 14 -14 16 q-18 2 -20 -14 Z" fill="#f1c21b"/>
    <path d="M86 74 q18 -12 34 -2 q4 14 -14 16 q-18 2 -20 -14 Z" fill="#ffd75e"/>
    <path d="M120 80 q16 -10 30 -1 q3 13 -13 15 q-16 2 -17 -14 Z" fill="#f1c21b"/>
    <path d="M62 96 q18 -10 32 -1 q3 13 -13 15 q-17 2 -19 -14 Z" fill="#ffd75e"/>
    <path d="M100 98 q16 -9 28 -1 q3 12 -12 14 q-15 2 -16 -13 Z" fill="#f1c21b"/>
    <path d="M58 80 q10 -5 18 -1" stroke="#ffe97a" stroke-width="3" fill="none" stroke-linecap="round"/>
    <path d="M94 76 q10 -5 18 -1" stroke="#fff3b8" stroke-width="3" fill="none" stroke-linecap="round"/>
  </g>
  <g transform="translate(146,32) rotate(24)">
    <rect x="-3" y="0" width="6" height="30" rx="3" fill="#33383e"/>
    <rect x="-14" y="30" width="28" height="26" rx="4" fill="#d0d4d9"/>
    <path d="M-14 40 L14 40 M-14 48 L14 48" stroke="#aab6c0" stroke-width="2.5" stroke-linecap="round"/>
  </g>
  <path d="M60 118 q-5 8 0 14 M100 120 q-5 8 0 14 M140 118 q-5 8 0 14" stroke="#ff832b" stroke-width="4" fill="none" stroke-linecap="round"/>
  <path d="M80 121 q-4 6 0 11 M120 121 q-4 6 0 11" stroke="#ffb000" stroke-width="3" fill="none" stroke-linecap="round"/>
  <path d="M46 46 q-4 -8 0 -14 M74 42 q-4 -8 0 -14" stroke="#aab6c0" stroke-width="3.5" fill="none" stroke-linecap="round" opacity="0.8"/>
</svg>
