<svg viewBox="0 0 200 150" xmlns="http://www.w3.org/2000/svg" role="img" aria-label="Carrot strips and onion wedges cut and gathered into one pile on the board">
  <ellipse cx="100" cy="128" rx="82" ry="8" fill="#000" opacity="0.25"/>
  <rect x="24" y="58" width="152" height="64" rx="8" fill="#c9a15f"/>
  <rect x="24" y="58" width="152" height="10" rx="5" fill="#dbb476"/>
  <g fill="#ff832b">
    <rect x="36" y="76" width="46" height="6" rx="3" transform="rotate(-6 59 79)"/>
    <rect x="36" y="88" width="46" height="6" rx="3" transform="rotate(-2 59 91)"/>
    <rect x="36" y="100" width="46" height="6" rx="3" transform="rotate(3 59 103)"/>
    <rect x="40" y="112" width="42" height="6" rx="3" transform="rotate(-3 61 115)"/>
  </g>
  <g fill="#f3dfae">
    <path d="M104 74 q16 5 20 20 q-16 5 -23 -3 Z"/>
    <path d="M132 78 q16 5 20 20 q-16 5 -23 -3 Z"/>
    <path d="M108 102 q15 5 19 18 q-15 5 -22 -3 Z"/>
    <path d="M136 104 q15 5 19 18 q-15 5 -22 -3 Z"/>
  </g>
  <g stroke="#e8c66a" stroke-width="2" fill="none" stroke-linecap="round">
    <path d="M108 80 q11 6 14 15"/>
    <path d="M136 84 q11 6 14 15"/>
    <path d="M112 108 q10 6 13 14"/>
  </g>
  <path d="M92 62 L92 120" stroke="#b98d4e" stroke-width="3" stroke-dasharray="6 7" stroke-linecap="round"/>
  <g transform="translate(154,18) rotate(32)">
    <rect x="-3" y="0" width="6" height="24" rx="3" fill="#33383e"/>
    <path d="M-3 24 L3 24 L6 54 Q0 59 -6 54 Z" fill="#d0d4d9"/>
  </g>
  <text x="58" y="46" text-anchor="middle" font-family="sans-serif" font-size="12" fill="#aab6c0">PILE 1</text>
</svg>
