<svg viewBox="0 0 200 150" xmlns="http://www.w3.org/2000/svg" role="img" aria-label="Cabbage squares, onion wedges and carrot strips cut on a board">
  <ellipse cx="100" cy="128" rx="82" ry="8" fill="#000" opacity="0.25"/>
  <rect x="24" y="58" width="152" height="64" rx="8" fill="#c9a15f"/>
  <rect x="24" y="58" width="152" height="10" rx="5" fill="#dbb476"/>
  <g>
    <rect x="34" y="78" width="24" height="20" rx="4" fill="#9be3a8" transform="rotate(-8 46 88)"/>
    <path d="M40 86 q7 5 14 0" stroke="#6fce85" stroke-width="2.5" fill="none" stroke-linecap="round" transform="rotate(-8 47 88)"/>
    <rect x="38" y="100" width="22" height="18" rx="4" fill="#b8ecc1" transform="rotate(5 49 109)"/>
  </g>
  <g fill="#f3dfae">
    <path d="M78 78 q12 4 16 16 q-12 4 -18 -2 Z"/>
    <path d="M80 100 q12 4 16 16 q-12 4 -18 -2 Z"/>
  </g>
  <g stroke="#e8c66a" stroke-width="2" fill="none" stroke-linecap="round">
    <path d="M82 84 q9 5 11 12"/>
    <path d="M84 106 q9 5 11 12"/>
  </g>
  <g fill="#ff832b">
    <rect x="118" y="76" width="42" height="6" rx="3" transform="rotate(-6 139 79)"/>
    <rect x="118" y="88" width="42" height="6" rx="3" transform="rotate(-2 139 91)"/>
    <rect x="118" y="100" width="42" height="6" rx="3" transform="rotate(3 139 103)"/>
    <rect x="118" y="112" width="42" height="6" rx="3" transform="rotate(-4 139 115)"/>
  </g>
  <g transform="translate(150,22) rotate(35)">
    <rect x="-3" y="0" width="6" height="26" rx="3" fill="#33383e"/>
    <path d="M-3 26 L3 26 L6 58 Q0 63 -6 58 Z" fill="#d0d4d9"/>
  </g>
  <path d="M44 34 q4 -8 10 0 M56 44 q4 -8 10 0" stroke="#9be3a8" stroke-width="3" fill="none" stroke-linecap="round"/>
</svg>
